<?xml version="1.0" encoding="utf-8"?>
<!-- Generator: Adobe Illustrator 21.0.0, SVG Export Plug-In . SVG Version: 6.00 Build 0)  -->
<svg version="1.1"
	 id="Layer_1" xmlns:cc="http://creativecommons.org/ns#" xmlns:dc="http://purl.org/dc/elements/1.1/" xmlns:rdf="http://www.w3.org/1999/02/22-rdf-syntax-ns#"
	 xmlns="http://www.w3.org/2000/svg" xmlns:xlink="http://www.w3.org/1999/xlink" x="0px" y="0px" viewBox="0 0 300 195"
	 style="enable-background:new 0 0 300 195;" xml:space="preserve">
<style type="text/css">
	.st0{fill:#003B70;}
	.st1{fill:#D9261C;}
</style>
<g transform="matrix(2.4760713,0,0,2.4760713,-2.9521334,-2.9521466)">
	<path class="st0" d="M38.4,64.2l-0.2,0.2c-3.4,3.5-7.4,5.4-11.5,5.4c-8.6,0-14.8-6.4-14.8-15.3c0-8.9,6.2-15.3,14.8-15.3
		c4.1,0,8.1,1.9,11.5,5.4l0.2,0.2l5.5-6.7l-0.1-0.2c-4.6-5.4-10.1-8.1-16.9-8.1c-6.8,0-13,2.3-17.5,6.4C4.6,40.7,2,47,2,54.5
		c0,7.5,2.6,13.8,7.4,18.2c4.5,4.1,10.7,6.4,17.5,6.4c6.8,0,12.3-2.6,16.9-8.1l0.1-0.2L38.4,64.2z"/>
	<path class="st0" d="M49.5,78.2h9.7V30.6h-9.7V78.2z"/>
	<path class="st0" d="M97.4,67.9c-2.6,1.6-5,2.4-7.2,2.4c-3.1,0-4.6-1.7-4.6-5.4V39.6h9.9v-9h-9.9V15.9L76.1,21v9.7h-8.2v9h8.2v26.9
		c0,7.3,4.3,12.3,10.8,12.4c4.4,0.1,7-1.2,8.7-2.2l0.1-0.1l2.3-9.2L97.4,67.9L97.4,67.9z"/>
	<path class="st0" d="M105.5,78.2h9.8V30.6h-9.8V78.2z"/>
	<path class="st1" d="M121.1,22.2C112.2,9.5,97.4,2,82.3,2C67.2,2,52.4,9.5,43.5,22.2L43,22.8h11.2l0.1-0.1
		C62,14.8,72,10.6,82.3,10.6c10.3,0,20.3,4.2,27.9,12.1l0.1,0.1h11.2L121.1,22.2L121.1,22.2z"/>
</g>
</svg>
